<?xml version="1.0" standalone="no"?>
<!DOCTYPE svg PUBLIC "-//W3C//DTD SVG 20010904//EN"
 "http://www.w3.org/TR/2001/REC-SVG-20010904/DTD/svg10.dtd">
<svg version="1.0" xmlns="http://www.w3.org/2000/svg"
 width="1083.000000pt" height="997.000000pt" viewBox="0 0 1083.000000 997.000000"
 preserveAspectRatio="xMidYMid meet">
<metadata>
Created by potrace 1.16, written by Peter Selinger 2001-2019
</metadata>
<g transform="translate(0.000000,997.000000) scale(0.100000,-0.100000)"
fill="#000000" stroke="none">
<path d="M1434 7391 c-11 -19 -33 -49 -50 -66 -17 -18 -36 -54 -44 -81 -7 -27
-17 -54 -21 -60 -12 -15 0 -24 31 -24 16 0 41 14 69 40 23 22 54 43 67 46 28
7 30 23 9 67 -8 18 -21 50 -29 72 l-13 40 -19 -34z"/>
<path d="M3352 6264 c-3 -46 -29 -64 -94 -64 l-55 0 -7 40 c-5 35 -9 39 -24
30 -9 -6 -35 -22 -57 -36 -22 -13 -47 -27 -55 -30 -8 -3 -28 -11 -45 -19 -16
-7 -51 -16 -77 -20 -53 -7 -65 -17 -70 -60 -3 -26 -8 -31 -38 -35 -29 -5 -32
-7 -15 -13 29 -11 85 -90 85 -120 0 -14 5 -27 12 -29 18 -6 24 -138 7 -149
-10 -6 -3 -12 24 -24 36 -15 37 -17 37 -64 0 -54 -7 -81 -21 -81 -5 0 -23 -16
-40 -35 -30 -34 -34 -35 -99 -35 -125 0 -178 47 -188 166 l-5 61 -36 -8 c-20
-5 -76 -11 -126 -15 -111 -9 -132 -26 -79 -62 19 -12 34 -26 34 -31 0 -4 12
-25 26 -46 23 -35 25 -44 21 -119 -10 -154 -18 -177 -71 -201 -19 -8 -24 -14
-14 -14 10 -1 20 -12 24 -25 5 -21 12 -25 60 -28 l54 -3 0 33 c0 24 9 42 30
64 29 28 34 30 98 27 l67 -4 3 40 c3 44 31 74 69 75 12 0 25 5 28 10 3 6 22
10 42 10 20 0 53 5 74 12 l39 11 0 54 c0 45 4 58 23 74 38 32 167 20 167 -16
0 -7 9 -15 19 -18 30 -7 45 -77 36 -167 -4 -41 -6 -102 -5 -135 1 -52 -4 -69
-37 -132 -22 -42 -48 -78 -63 -85 -14 -7 -28 -16 -31 -21 -3 -4 -107 -3 -232
2 -177 8 -232 14 -249 26 -13 8 -26 15 -30 15 -5 0 -8 -35 -8 -77 -1 -43 -7
-96 -15 -118 -8 -22 -15 -40 -15 -40 0 0 35 0 77 0 l78 0 3 -71 c3 -69 1 -73
-28 -103 -29 -28 -37 -31 -97 -31 l-66 0 6 91 c5 72 3 88 -6 76 -19 -24 -80
-57 -105 -57 -38 0 -51 -22 -54 -91 l-3 -64 -54 -3 c-49 -3 -57 0 -87 29 -20
19 -34 43 -34 56 0 13 -6 25 -12 28 -7 2 -77 5 -155 8 -141 3 -143 3 -143 -18
0 -19 -13 -26 -78 -49 -42 -14 -96 -26 -120 -26 -23 0 -42 -4 -42 -10 0 -6 28
-10 63 -10 89 0 107 -20 107 -116 0 -41 -5 -75 -12 -82 -7 -7 -39 -12 -74 -12
-54 0 -65 3 -78 22 -9 12 -16 30 -16 40 0 14 -8 18 -39 18 l-39 0 -4 -97 c-3
-54 -8 -106 -13 -115 -7 -17 7 -18 204 -18 l211 0 0 88 c0 73 3 92 18 105 24
22 124 23 142 2 7 -9 29 -15 51 -15 35 0 41 -4 59 -40 12 -24 20 -59 20 -90
l0 -50 390 0 c383 0 390 0 390 20 0 18 7 20 58 20 60 0 211 -22 229 -33 7 -4
12 8 15 32 l3 39 -112 7 -113 7 1 117 c0 173 7 185 139 247 43 20 65 25 110
22 30 -2 62 -6 70 -9 10 -3 16 4 18 22 3 25 6 27 77 31 53 4 89 13 130 33 48
23 66 27 120 23 57 -3 62 -2 56 14 -4 10 -22 26 -41 36 -33 16 -35 20 -38 75
l-3 57 57 0 c55 0 183 -24 215 -40 29 -15 170 -70 180 -70 5 0 9 27 9 60 l0
60 60 0 61 0 -3 -57 -3 -58 -55 -6 c-52 -5 -53 -6 -23 -13 21 -6 40 -20 53
-41 35 -56 50 -53 50 10 0 44 4 57 20 67 13 9 20 24 20 45 0 44 9 63 31 63 16
0 19 8 19 51 l0 51 -37 -7 c-21 -4 -75 -9 -120 -10 -57 -2 -87 -8 -98 -18 -8
-9 -28 -18 -45 -22 -23 -5 -30 -12 -30 -31 0 -23 -3 -24 -60 -24 l-60 0 0 40
c0 24 -11 62 -26 92 -23 46 -25 60 -22 148 3 86 6 101 31 138 l27 42 74 0 74
0 4 35 4 34 -61 3 c-51 3 -61 6 -70 25 -8 18 -20 23 -81 28 -41 4 -101 2 -141
-4 -37 -6 -84 -12 -103 -14 -30 -2 -35 -6 -42 -37 -5 -19 -8 -102 -8 -183 1
-101 -3 -153 -11 -163 -7 -9 -31 -14 -64 -14 -51 0 -53 1 -59 31 -3 17 -6 59
-6 93 0 69 -17 116 -41 116 -12 0 -19 13 -23 45 -4 24 -11 47 -17 50 -5 4 -9
15 -9 27 0 11 -7 35 -15 53 -11 22 -15 54 -13 101 l3 69 63 3 c62 3 80 22 21
22 -19 0 -29 5 -29 15 0 8 -4 15 -10 15 -5 0 -10 12 -10 27 0 25 -1 25 -18 10
-15 -13 -39 -17 -111 -17 -79 0 -96 3 -121 22 -25 18 -30 29 -30 64 0 24 -5
46 -10 49 -27 17 -51 87 -48 143 l3 57 125 -3 c69 -1 135 -5 147 -7 28 -6 36
19 30 91 -2 27 -4 35 -5 18z m32 -940 c12 -5 16 -20 16 -58 0 -90 -5 -96 -66
-96 -71 0 -94 21 -94 86 0 33 5 51 18 60 17 14 98 19 126 8z"/>
<path d="M4262 6002 c-3 -57 -15 -77 -54 -92 l-33 -11 37 -32 c34 -30 37 -37
43 -104 4 -40 11 -71 16 -68 5 3 17 26 28 50 20 45 45 65 80 65 12 0 21 5 21
10 0 6 -7 10 -15 10 -20 0 -35 40 -35 91 0 39 0 39 -39 39 -40 0 -40 0 -44 43
l-4 42 -1 -43z"/>
<path d="M1902 5995 c-11 -14 -26 -25 -34 -25 -8 0 -31 -16 -51 -35 -35 -34
-39 -35 -110 -35 -70 0 -74 1 -95 30 -22 29 -52 41 -52 20 0 -5 -54 -11 -127
-12 l-128 -3 -5 -59 c-3 -33 -4 -75 -2 -93 l4 -34 104 7 c114 7 134 1 134 -43
0 -13 7 -31 15 -40 12 -11 15 -32 13 -77 l-3 -61 -72 -3 c-64 -3 -77 0 -110
23 -40 27 -73 33 -73 13 0 -7 10 -92 21 -188 12 -96 24 -211 27 -255 4 -44 11
-86 15 -92 5 -7 26 -13 48 -13 l39 0 0 80 c0 62 5 89 22 122 22 45 81 124 108
145 22 18 105 16 166 -4 49 -15 55 -15 71 0 10 8 41 17 68 19 49 3 49 4 22 16
-15 6 -52 30 -82 52 l-55 41 0 77 c0 47 5 85 13 95 14 20 92 44 190 59 37 6
67 15 67 19 0 5 9 9 20 9 18 0 20 7 20 65 0 49 3 65 14 65 8 0 19 14 25 30 5
17 24 38 41 48 65 36 65 38 -2 34 -50 -3 -67 -1 -77 12 -10 12 -32 16 -91 16
-72 0 -80 -2 -98 -25z"/>
<path d="M4125 5319 c4 -30 12 -63 18 -74 10 -19 10 -19 18 2 12 34 60 53 132
53 66 0 92 -11 100 -45 3 -11 5 5 4 35 l-2 55 -125 5 c-69 3 -131 9 -139 14
-11 7 -12 -1 -6 -45z"/>
<path d="M750 600 c0 -47 2 -50 26 -50 14 0 42 14 63 30 48 39 88 50 181 50
93 0 133 -11 181 -50 l37 -30 389 -2 388 -3 3 -24 4 -23 129 7 c99 6 129 4
129 -5 0 -9 24 -11 98 -6 53 4 556 9 1117 11 561 2 1061 7 1110 10 118 10 119
9 113 -131 l-4 -106 -37 -30 c-20 -17 -37 -36 -37 -44 0 -31 -49 -47 -161 -52
l-109 -5 0 -42 c0 -23 -3 -57 -6 -74 l-6 -31 1321 0 1321 0 0 30 0 30 65 0 65
0 0 -30 c0 -27 3 -30 30 -30 30 0 30 1 30 54 l0 55 53 6 c28 4 68 5 87 3 l35
-3 3 -57 3 -58 561 0 c497 0 559 2 548 15 -7 8 -24 15 -38 15 -27 0 -51 25
-52 53 0 12 -8 17 -30 17 -28 0 -30 2 -30 38 0 34 -5 42 -44 70 -24 18 -56 32
-70 32 -15 0 -54 11 -88 25 -34 14 -71 25 -82 25 -11 0 -47 5 -80 11 -34 6
-70 13 -81 15 -36 6 -57 103 -38 173 l6 24 389 -6 388 -6 0 24 c0 13 14 37 31
54 29 30 34 31 119 31 83 0 90 -2 119 -29 19 -18 31 -39 31 -55 0 -30 -35 -27
402 -29 220 -1 249 0 265 16 11 9 34 22 51 28 21 7 32 18 32 30 0 16 8 19 51
19 41 0 57 -5 90 -32 21 -17 39 -39 39 -49 0 -17 13 -18 175 -16 l175 2 0 78
0 77 -4730 0 -4730 0 0 -50z m5893 -90 l657 0 0 -55 c0 -42 -4 -55 -15 -55 -8
0 -19 -9 -25 -20 -6 -11 -41 -42 -78 -69 -68 -50 -95 -80 -125 -137 -12 -24
-27 -34 -61 -43 -25 -6 -57 -11 -72 -11 -15 0 -49 -13 -76 -30 -42 -26 -58
-30 -122 -30 -60 0 -78 4 -101 22 -26 20 -44 22 -214 29 -226 9 -345 23 -378
45 -14 8 -32 28 -41 44 -15 26 -22 28 -87 32 -38 3 -78 1 -87 -4 -9 -4 -46 -8
-81 -8 l-65 0 -36 93 c-27 69 -36 108 -36 152 l0 58 193 -7 c105 -3 488 -6
850 -6z"/>
<path d="M3918 199 c-15 -8 -18 -25 -18 -104 0 -94 0 -95 24 -95 20 0 25 6 28
32 2 22 9 34 23 38 17 4 20 13 20 73 l0 67 -30 0 c-16 0 -38 -5 -47 -11z"/>
</g>
</svg>
